<?xml version="1.0" encoding="UTF-8" standalone="no"?>
<!DOCTYPE svg PUBLIC "-//W3C//DTD SVG 1.1//EN"
 "http://www.w3.org/Graphics/SVG/1.1/DTD/svg11.dtd">
<!-- Generated by graphviz version 2.40.1 (20161225.0304)
 -->
<!-- Title: %3 Pages: 1 -->
<svg width="104pt" height="356pt"
 viewBox="0.00 0.00 103.89 356.45" xmlns="http://www.w3.org/2000/svg" xmlns:xlink="http://www.w3.org/1999/xlink">
<g id="graph0" class="graph" transform="scale(1 1) rotate(0) translate(4 352.4503)">
<title>%3</title>
<polygon fill="#ffffff" stroke="transparent" points="-4,4 -4,-352.4503 99.8937,-352.4503 99.8937,4 -4,4"/>
<!-- t1 -->
<g id="node1" class="node">
<title>t1</title>
<ellipse fill="none" stroke="#000000" cx="47.4469" cy="-330.4503" rx="18" ry="18"/>
<text text-anchor="middle" x="47.4469" y="-326.2503" font-family="Times,serif" font-size="14.00" fill="#000000">t1</text>
</g>
<!-- t2 -->
<g id="node2" class="node">
<title>t2</title>
<ellipse fill="none" stroke="#000000" cx="24.4469" cy="-258.4503" rx="18" ry="18"/>
<text text-anchor="middle" x="24.4469" y="-254.2503" font-family="Times,serif" font-size="14.00" fill="#000000">t2</text>
</g>
<!-- t1&#45;&gt;t2 -->
<g id="edge1" class="edge">
<title>t1&#45;&gt;t2</title>
<path fill="none" stroke="#000000" d="M41.8792,-313.0211C39.2236,-304.7078 35.9868,-294.5751 33.0264,-285.308"/>
<polygon fill="#000000" stroke="#000000" points="36.3403,-284.1797 29.9633,-275.719 29.6723,-286.3098 36.3403,-284.1797"/>
</g>
<!-- MA2 -->
<g id="node3" class="node">
<title>MA2</title>
<ellipse fill="#cccccc" stroke="#000000" cx="47.4469" cy="-175.672" rx="28.5583" ry="28.5583"/>
<text text-anchor="middle" x="47.4469" y="-171.472" font-family="Times,serif" font-size="14.00" fill="#000000">MA2</text>
</g>
<!-- t1&#45;&gt;MA2 -->
<g id="edge2" class="edge">
<title>t1&#45;&gt;MA2</title>
<path fill="none" stroke="#000000" d="M49.1133,-312.4688C50.0021,-301.9749 51.0021,-288.4749 51.4469,-276.4503 52.1969,-256.1703 51.448,-233.5972 50.4036,-214.9639"/>
<polygon fill="#000000" stroke="#000000" points="53.8847,-214.5453 49.7822,-204.7769 46.8977,-214.9715 53.8847,-214.5453"/>
</g>
<!-- t2&#45;&gt;MA2 -->
<g id="edge3" class="edge">
<title>t2&#45;&gt;MA2</title>
<path fill="none" stroke="#000000" d="M29.3246,-240.8951C31.556,-232.8643 34.2919,-223.0173 36.9552,-213.432"/>
<polygon fill="#000000" stroke="#000000" points="40.3752,-214.1968 39.6802,-203.6248 33.6307,-212.3228 40.3752,-214.1968"/>
</g>
<!-- S1 -->
<g id="node4" class="node">
<title>S1</title>
<ellipse fill="#cccccc" stroke="#000000" cx="19.4469" cy="-91.4469" rx="19.3939" ry="19.3939"/>
<text text-anchor="middle" x="19.4469" y="-87.2469" font-family="Times,serif" font-size="14.00" fill="#000000">S1</text>
</g>
<!-- MA2&#45;&gt;S1 -->
<g id="edge4" class="edge">
<title>MA2&#45;&gt;S1</title>
<path fill="none" stroke="#000000" d="M38.2786,-148.0935C35.2657,-139.0306 31.9125,-128.9441 28.8803,-119.823"/>
<polygon fill="#000000" stroke="#000000" points="32.1044,-118.4264 25.6284,-110.0412 25.4619,-120.6348 32.1044,-118.4264"/>
</g>
<!-- S2 -->
<g id="node5" class="node">
<title>S2</title>
<ellipse fill="#cccccc" stroke="#000000" cx="76.4469" cy="-91.4469" rx="19.3939" ry="19.3939"/>
<text text-anchor="middle" x="76.4469" y="-87.2469" font-family="Times,serif" font-size="14.00" fill="#000000">S2</text>
</g>
<!-- MA2&#45;&gt;S2 -->
<g id="edge5" class="edge">
<title>MA2&#45;&gt;S2</title>
<path fill="none" stroke="#000000" d="M56.9426,-148.0935C60.0966,-138.9332 63.6107,-128.727 66.7777,-119.5291"/>
<polygon fill="#000000" stroke="#000000" points="70.0982,-120.6359 70.0445,-110.0412 63.4796,-118.357 70.0982,-120.6359"/>
</g>
<!-- d -->
<g id="node6" class="node">
<title>d</title>
<ellipse fill="none" stroke="#000000" cx="47.4469" cy="-18" rx="18" ry="18"/>
<text text-anchor="middle" x="47.4469" y="-13.8" font-family="Times,serif" font-size="14.00" fill="#000000">d</text>
</g>
<!-- S1&#45;&gt;d -->
<g id="edge6" class="edge">
<title>S1&#45;&gt;d</title>
<path fill="none" stroke="#000000" d="M26.5124,-72.9131C29.7485,-64.4245 33.646,-54.2012 37.1961,-44.8887"/>
<polygon fill="#000000" stroke="#000000" points="40.5726,-45.8573 40.8644,-35.2664 34.0317,-43.3637 40.5726,-45.8573"/>
</g>
<!-- S2&#45;&gt;d -->
<g id="edge7" class="edge">
<title>S2&#45;&gt;d</title>
<path fill="none" stroke="#000000" d="M69.2783,-73.2915C65.8425,-64.5897 61.6614,-54.0004 57.8813,-44.4269"/>
<polygon fill="#000000" stroke="#000000" points="61.0633,-42.9553 54.1353,-34.9395 54.5525,-45.5262 61.0633,-42.9553"/>
</g>
</g>
</svg>
