<?xml version="1.0" encoding="UTF-8" standalone="no"?>
<!DOCTYPE svg PUBLIC "-//W3C//DTD SVG 1.1//EN"
 "http://www.w3.org/Graphics/SVG/1.1/DTD/svg11.dtd">
<!-- Generated by graphviz version 2.40.1 (20161225.0304)
 -->
<!-- Title: %3 Pages: 1 -->
<svg width="104pt" height="263pt"
 viewBox="0.00 0.00 103.89 262.89" xmlns="http://www.w3.org/2000/svg" xmlns:xlink="http://www.w3.org/1999/xlink">
<g id="graph0" class="graph" transform="scale(1 1) rotate(0) translate(4 258.8937)">
<title>%3</title>
<polygon fill="#ffffff" stroke="transparent" points="-4,4 -4,-258.8937 99.8937,-258.8937 99.8937,4 -4,4"/>
<!-- t1 -->
<g id="node1" class="node">
<title>t1</title>
<ellipse fill="none" stroke="#000000" cx="20.4469" cy="-236.8937" rx="18" ry="18"/>
<text text-anchor="middle" x="20.4469" y="-232.6937" font-family="Times,serif" font-size="14.00" fill="#000000">t1</text>
</g>
<!-- Y -->
<g id="node3" class="node">
<title>Y</title>
<ellipse fill="#cccccc" stroke="#000000" cx="47.4469" cy="-164.8937" rx="18" ry="18"/>
<text text-anchor="middle" x="47.4469" y="-160.6937" font-family="Times,serif" font-size="14.00" fill="#000000">Y</text>
</g>
<!-- t1&#45;&gt;Y -->
<g id="edge1" class="edge">
<title>t1&#45;&gt;Y</title>
<path fill="none" stroke="#000000" d="M26.8455,-219.8307C30.0399,-211.3124 33.9758,-200.8165 37.5487,-191.2889"/>
<polygon fill="#000000" stroke="#000000" points="40.86,-192.4265 41.0942,-181.8342 34.3057,-189.9686 40.86,-192.4265"/>
</g>
<!-- t2 -->
<g id="node2" class="node">
<title>t2</title>
<ellipse fill="none" stroke="#000000" cx="74.4469" cy="-236.8937" rx="18" ry="18"/>
<text text-anchor="middle" x="74.4469" y="-232.6937" font-family="Times,serif" font-size="14.00" fill="#000000">t2</text>
</g>
<!-- t2&#45;&gt;Y -->
<g id="edge2" class="edge">
<title>t2&#45;&gt;Y</title>
<path fill="none" stroke="#000000" d="M68.0482,-219.8307C64.8539,-211.3124 60.9179,-200.8165 57.3451,-191.2889"/>
<polygon fill="#000000" stroke="#000000" points="60.588,-189.9686 53.7996,-181.8342 54.0337,-192.4265 60.588,-189.9686"/>
</g>
<!-- S1 -->
<g id="node4" class="node">
<title>S1</title>
<ellipse fill="#cccccc" stroke="#000000" cx="19.4469" cy="-91.4469" rx="19.3939" ry="19.3939"/>
<text text-anchor="middle" x="19.4469" y="-87.2469" font-family="Times,serif" font-size="14.00" fill="#000000">S1</text>
</g>
<!-- Y&#45;&gt;S1 -->
<g id="edge3" class="edge">
<title>Y&#45;&gt;S1</title>
<path fill="none" stroke="#000000" d="M40.9527,-147.8589C37.7154,-139.367 33.7178,-128.8809 30.0509,-119.2624"/>
<polygon fill="#000000" stroke="#000000" points="33.2279,-117.7703 26.3952,-109.673 26.687,-120.2639 33.2279,-117.7703"/>
</g>
<!-- S2 -->
<g id="node5" class="node">
<title>S2</title>
<ellipse fill="#cccccc" stroke="#000000" cx="76.4469" cy="-91.4469" rx="19.3939" ry="19.3939"/>
<text text-anchor="middle" x="76.4469" y="-87.2469" font-family="Times,serif" font-size="14.00" fill="#000000">S2</text>
</g>
<!-- Y&#45;&gt;S2 -->
<g id="edge4" class="edge">
<title>Y&#45;&gt;S2</title>
<path fill="none" stroke="#000000" d="M54.1729,-147.8589C57.5259,-139.367 61.6663,-128.8809 65.4641,-119.2624"/>
<polygon fill="#000000" stroke="#000000" points="68.8332,-120.2597 69.2504,-109.673 62.3224,-117.6889 68.8332,-120.2597"/>
</g>
<!-- d -->
<g id="node6" class="node">
<title>d</title>
<ellipse fill="none" stroke="#000000" cx="47.4469" cy="-18" rx="18" ry="18"/>
<text text-anchor="middle" x="47.4469" y="-13.8" font-family="Times,serif" font-size="14.00" fill="#000000">d</text>
</g>
<!-- S1&#45;&gt;d -->
<g id="edge5" class="edge">
<title>S1&#45;&gt;d</title>
<path fill="none" stroke="#000000" d="M26.5124,-72.9131C29.7485,-64.4245 33.646,-54.2012 37.1961,-44.8887"/>
<polygon fill="#000000" stroke="#000000" points="40.5726,-45.8573 40.8644,-35.2664 34.0317,-43.3637 40.5726,-45.8573"/>
</g>
<!-- S2&#45;&gt;d -->
<g id="edge6" class="edge">
<title>S2&#45;&gt;d</title>
<path fill="none" stroke="#000000" d="M69.2783,-73.2915C65.8425,-64.5897 61.6614,-54.0004 57.8813,-44.4269"/>
<polygon fill="#000000" stroke="#000000" points="61.0633,-42.9553 54.1353,-34.9395 54.5525,-45.5262 61.0633,-42.9553"/>
</g>
</g>
</svg>
