<?xml version="1.0" encoding="UTF-8" standalone="no"?>
<!DOCTYPE svg PUBLIC "-//W3C//DTD SVG 1.1//EN"
 "http://www.w3.org/Graphics/SVG/1.1/DTD/svg11.dtd">
<!-- Generated by graphviz version 2.40.1 (20161225.0304)
 -->
<!-- Title: %3 Pages: 1 -->
<svg width="104pt" height="335pt"
 viewBox="0.00 0.00 103.89 334.89" xmlns="http://www.w3.org/2000/svg" xmlns:xlink="http://www.w3.org/1999/xlink">
<g id="graph0" class="graph" transform="scale(1 1) rotate(0) translate(4 330.8937)">
<title>%3</title>
<polygon fill="#ffffff" stroke="transparent" points="-4,4 -4,-330.8937 99.8937,-330.8937 99.8937,4 -4,4"/>
<!-- Y -->
<g id="node1" class="node">
<title>Y</title>
<ellipse fill="#cccccc" stroke="#000000" cx="47.4469" cy="-164.8937" rx="18" ry="18"/>
<text text-anchor="middle" x="47.4469" y="-160.6937" font-family="Times,serif" font-size="14.00" fill="#000000">Y</text>
</g>
<!-- S1 -->
<g id="node2" class="node">
<title>S1</title>
<ellipse fill="#cccccc" stroke="#000000" cx="19.4469" cy="-91.4469" rx="19.3939" ry="19.3939"/>
<text text-anchor="middle" x="19.4469" y="-87.2469" font-family="Times,serif" font-size="14.00" fill="#000000">S1</text>
</g>
<!-- Y&#45;&gt;S1 -->
<g id="edge1" class="edge">
<title>Y&#45;&gt;S1</title>
<path fill="none" stroke="#000000" d="M40.9527,-147.8589C37.7154,-139.367 33.7178,-128.8809 30.0509,-119.2624"/>
<polygon fill="#000000" stroke="#000000" points="33.2279,-117.7703 26.3952,-109.673 26.687,-120.2639 33.2279,-117.7703"/>
</g>
<!-- S2 -->
<g id="node3" class="node">
<title>S2</title>
<ellipse fill="#cccccc" stroke="#000000" cx="76.4469" cy="-91.4469" rx="19.3939" ry="19.3939"/>
<text text-anchor="middle" x="76.4469" y="-87.2469" font-family="Times,serif" font-size="14.00" fill="#000000">S2</text>
</g>
<!-- Y&#45;&gt;S2 -->
<g id="edge2" class="edge">
<title>Y&#45;&gt;S2</title>
<path fill="none" stroke="#000000" d="M54.1729,-147.8589C57.5259,-139.367 61.6663,-128.8809 65.4641,-119.2624"/>
<polygon fill="#000000" stroke="#000000" points="68.8332,-120.2597 69.2504,-109.673 62.3224,-117.6889 68.8332,-120.2597"/>
</g>
<!-- d -->
<g id="node4" class="node">
<title>d</title>
<ellipse fill="none" stroke="#000000" cx="47.4469" cy="-18" rx="18" ry="18"/>
<text text-anchor="middle" x="47.4469" y="-13.8" font-family="Times,serif" font-size="14.00" fill="#000000">d</text>
</g>
<!-- S1&#45;&gt;d -->
<g id="edge3" class="edge">
<title>S1&#45;&gt;d</title>
<path fill="none" stroke="#000000" d="M26.5124,-72.9131C29.7485,-64.4245 33.646,-54.2012 37.1961,-44.8887"/>
<polygon fill="#000000" stroke="#000000" points="40.5726,-45.8573 40.8644,-35.2664 34.0317,-43.3637 40.5726,-45.8573"/>
</g>
<!-- S2&#45;&gt;d -->
<g id="edge4" class="edge">
<title>S2&#45;&gt;d</title>
<path fill="none" stroke="#000000" d="M69.2783,-73.2915C65.8425,-64.5897 61.6614,-54.0004 57.8813,-44.4269"/>
<polygon fill="#000000" stroke="#000000" points="61.0633,-42.9553 54.1353,-34.9395 54.5525,-45.5262 61.0633,-42.9553"/>
</g>
<!-- t1 -->
<g id="node5" class="node">
<title>t1</title>
<ellipse fill="none" stroke="#000000" cx="47.4469" cy="-308.8937" rx="18" ry="18"/>
<text text-anchor="middle" x="47.4469" y="-304.6937" font-family="Times,serif" font-size="14.00" fill="#000000">t1</text>
</g>
<!-- t1&#45;&gt;Y -->
<g id="edge5" class="edge">
<title>t1&#45;&gt;Y</title>
<path fill="none" stroke="#000000" d="M45.7804,-290.9122C44.8916,-280.4184 43.8916,-266.9184 43.4469,-254.8937 42.8555,-238.9047 42.8555,-234.8828 43.4469,-218.8937 43.7596,-210.4389 44.3468,-201.2547 44.9769,-192.8989"/>
<polygon fill="#000000" stroke="#000000" points="48.47,-193.123 45.7804,-182.8752 41.4924,-192.5635 48.47,-193.123"/>
</g>
<!-- t2 -->
<g id="node6" class="node">
<title>t2</title>
<ellipse fill="none" stroke="#000000" cx="70.4469" cy="-236.8937" rx="18" ry="18"/>
<text text-anchor="middle" x="70.4469" y="-232.6937" font-family="Times,serif" font-size="14.00" fill="#000000">t2</text>
</g>
<!-- t1&#45;&gt;t2 -->
<g id="edge6" class="edge">
<title>t1&#45;&gt;t2</title>
<path fill="none" stroke="#000000" d="M53.0145,-291.4645C55.6702,-283.1513 58.907,-273.0186 61.8673,-263.7515"/>
<polygon fill="#000000" stroke="#000000" points="65.2215,-264.7533 64.9305,-254.1624 58.5534,-262.6231 65.2215,-264.7533"/>
</g>
<!-- t2&#45;&gt;Y -->
<g id="edge7" class="edge">
<title>t2&#45;&gt;Y</title>
<path fill="none" stroke="#000000" d="M64.8792,-219.4645C62.2236,-211.1513 58.9868,-201.0186 56.0264,-191.7515"/>
<polygon fill="#000000" stroke="#000000" points="59.3403,-190.6231 52.9633,-182.1624 52.6723,-192.7533 59.3403,-190.6231"/>
</g>
</g>
</svg>
