<?xml version="1.0" encoding="UTF-8" standalone="no"?>
<!DOCTYPE svg PUBLIC "-//W3C//DTD SVG 1.1//EN"
 "http://www.w3.org/Graphics/SVG/1.1/DTD/svg11.dtd">
<!-- Generated by graphviz version 2.40.1 (20161225.0304)
 -->
<!-- Title: %3 Pages: 1 -->
<svg width="206pt" height="341pt"
 viewBox="0.00 0.00 205.55 341.29" xmlns="http://www.w3.org/2000/svg" xmlns:xlink="http://www.w3.org/1999/xlink">
<g id="graph0" class="graph" transform="scale(1 1) rotate(0) translate(4 337.2863)">
<title>%3</title>
<polygon fill="#ffffff" stroke="transparent" points="-4,4 -4,-337.2863 201.5479,-337.2863 201.5479,4 -4,4"/>
<!-- d_T2 -->
<g id="node1" class="node">
<title>d_T2</title>
<ellipse fill="none" stroke="#000000" cx="168.774" cy="-28.774" rx="28.5497" ry="28.5497"/>
<text text-anchor="middle" x="168.774" y="-24.574" font-family="Times,serif" font-size="14.00" fill="#000000">d_T2</text>
</g>
<!-- alpha -->
<g id="node2" class="node">
<title>alpha</title>
<ellipse fill="none" stroke="#000000" cx="98.774" cy="-304.0287" rx="29.0172" ry="29.0172"/>
<text text-anchor="middle" x="98.774" y="-299.8287" font-family="Times,serif" font-size="14.00" fill="#000000">alpha</text>
</g>
<!-- sim -->
<g id="node3" class="node">
<title>sim</title>
<ellipse fill="#cccccc" stroke="#000000" cx="98.774" cy="-215.8871" rx="22.7687" ry="22.7687"/>
<text text-anchor="middle" x="98.774" y="-211.6871" font-family="Times,serif" font-size="14.00" fill="#000000">sim</text>
</g>
<!-- alpha&#45;&gt;sim -->
<g id="edge1" class="edge">
<title>alpha&#45;&gt;sim</title>
<path fill="none" stroke="#000000" d="M98.774,-274.6788C98.774,-266.5097 98.774,-257.5781 98.774,-249.1992"/>
<polygon fill="#000000" stroke="#000000" points="102.2741,-248.9804 98.774,-238.9805 95.2741,-248.9805 102.2741,-248.9804"/>
</g>
<!-- T1 -->
<g id="node5" class="node">
<title>T1</title>
<ellipse fill="#cccccc" stroke="#000000" cx="28.774" cy="-125.2755" rx="19.8612" ry="19.8612"/>
<text text-anchor="middle" x="28.774" y="-121.0755" font-family="Times,serif" font-size="14.00" fill="#000000">T1</text>
</g>
<!-- sim&#45;&gt;T1 -->
<g id="edge3" class="edge">
<title>sim&#45;&gt;T1</title>
<path fill="none" stroke="#000000" d="M84.6084,-197.5505C73.822,-183.588 58.8848,-164.2525 47.1742,-149.0937"/>
<polygon fill="#000000" stroke="#000000" points="49.9304,-146.9364 41.0471,-141.1625 44.3909,-151.2159 49.9304,-146.9364"/>
</g>
<!-- d_sim -->
<g id="node6" class="node">
<title>d_sim</title>
<ellipse fill="none" stroke="#000000" cx="98.774" cy="-125.2755" rx="31.9567" ry="31.9567"/>
<text text-anchor="middle" x="98.774" y="-121.0755" font-family="Times,serif" font-size="14.00" fill="#000000">d_sim</text>
</g>
<!-- sim&#45;&gt;d_sim -->
<g id="edge4" class="edge">
<title>sim&#45;&gt;d_sim</title>
<path fill="none" stroke="#000000" d="M98.774,-192.5523C98.774,-184.7884 98.774,-175.8887 98.774,-167.1594"/>
<polygon fill="#000000" stroke="#000000" points="102.2741,-167.0684 98.774,-157.0684 95.2741,-167.0685 102.2741,-167.0684"/>
</g>
<!-- T2 -->
<g id="node7" class="node">
<title>T2</title>
<ellipse fill="#cccccc" stroke="#000000" cx="168.774" cy="-125.2755" rx="19.8612" ry="19.8612"/>
<text text-anchor="middle" x="168.774" y="-121.0755" font-family="Times,serif" font-size="14.00" fill="#000000">T2</text>
</g>
<!-- sim&#45;&gt;T2 -->
<g id="edge2" class="edge">
<title>sim&#45;&gt;T2</title>
<path fill="none" stroke="#000000" d="M112.9395,-197.5505C123.7259,-183.588 138.6631,-164.2525 150.3737,-149.0937"/>
<polygon fill="#000000" stroke="#000000" points="153.157,-151.2159 156.5008,-141.1625 147.6175,-146.9364 153.157,-151.2159"/>
</g>
<!-- d_T1 -->
<g id="node4" class="node">
<title>d_T1</title>
<ellipse fill="none" stroke="#000000" cx="28.774" cy="-28.774" rx="28.5497" ry="28.5497"/>
<text text-anchor="middle" x="28.774" y="-24.574" font-family="Times,serif" font-size="14.00" fill="#000000">d_T1</text>
</g>
<!-- T1&#45;&gt;d_T1 -->
<g id="edge5" class="edge">
<title>T1&#45;&gt;d_T1</title>
<path fill="none" stroke="#000000" d="M28.774,-105.2803C28.774,-94.477 28.774,-80.7559 28.774,-67.9254"/>
<polygon fill="#000000" stroke="#000000" points="32.2741,-67.8993 28.774,-57.8994 25.2741,-67.8994 32.2741,-67.8993"/>
</g>
<!-- T2&#45;&gt;d_T2 -->
<g id="edge6" class="edge">
<title>T2&#45;&gt;d_T2</title>
<path fill="none" stroke="#000000" d="M168.774,-105.2803C168.774,-94.477 168.774,-80.7559 168.774,-67.9254"/>
<polygon fill="#000000" stroke="#000000" points="172.2741,-67.8993 168.774,-57.8994 165.2741,-67.8994 172.2741,-67.8993"/>
</g>
</g>
</svg>
